# xmcd CD database file
#
# Track frame offsets:
#	150
#	1666
#	29565
#	51616
#	77204
#	115686
#	138564
#	161266
#	190679
#	234103
#	260416
#	278491
#
# Disc length: 4133 seconds
#
# Revision: 6
# Processed by: cddbd v1.5.2PL0 Copyright (c) Steve Scherf et al.
# Submitted via: CDex 1.51
#
DISCID=9210230c
DTITLE=Roy GAINES - In The House
DYEAR=2002
DGENRE=Blues
TTITLE0=Introduction
TTITLE1=Standing Up For Women's Rights
TTITLE2=Wolfman
TTITLE3=Hind Ends And Elbows
TTITLE4=I Got My Thang On You
TTITLE5=Lucille Works For Me
TTITLE6=Too Many Men
TTITLE7=Rag Blues
TTITLE8=Petrol For Your Tank
TTITLE9=Wc Handy Sang The Blues
TTITLE10=Southern Women
TTITLE11=New Orleans
EXTD=YEAR: 2002
EXTT0=
EXTT1=
EXTT2=
EXTT3=
EXTT4=
EXTT5=
EXTT6=
EXTT7=
EXTT8=
EXTT9=
EXTT10=
EXTT11=
PLAYORDER=
